<mxfile host="app.diagrams.net" modified="2022-10-18T18:57:14.050Z" agent="5.0 (Windows NT 10.0; WOW64) AppleWebKit/537.36 (KHTML, like Gecko) Chrome/106.0.0.0 Safari/537.36" etag="EFQQL0Yx9v-jy-7fmbxw" version="20.4.1" type="github">
  <diagram id="C5RBs43oDa-KdzZeNtuy" name="Page-1">
    <mxGraphModel dx="1185" dy="635" grid="1" gridSize="10" guides="1" tooltips="1" connect="1" arrows="1" fold="1" page="1" pageScale="1" pageWidth="827" pageHeight="1169" math="0" shadow="0">
      <root>
        <mxCell id="WIyWlLk6GJQsqaUBKTNV-0" />
        <mxCell id="WIyWlLk6GJQsqaUBKTNV-1" parent="WIyWlLk6GJQsqaUBKTNV-0" />
        <mxCell id="UYW1IYDeI8D_VyTJdm85-3" value="OWNER" style="swimlane;" vertex="1" parent="WIyWlLk6GJQsqaUBKTNV-1">
          <mxGeometry x="10" y="40" width="200" height="400" as="geometry" />
        </mxCell>
        <mxCell id="UYW1IYDeI8D_VyTJdm85-7" value="Create Project" style="rounded=1;whiteSpace=wrap;html=1;" vertex="1" parent="UYW1IYDeI8D_VyTJdm85-3">
          <mxGeometry x="20" y="40" width="120" height="40" as="geometry" />
        </mxCell>
        <mxCell id="UYW1IYDeI8D_VyTJdm85-8" value="Assign Users" style="rounded=1;whiteSpace=wrap;html=1;" vertex="1" parent="UYW1IYDeI8D_VyTJdm85-3">
          <mxGeometry x="60" y="210" width="120" height="40" as="geometry" />
        </mxCell>
        <mxCell id="UYW1IYDeI8D_VyTJdm85-9" value="Edit Project" style="rounded=1;whiteSpace=wrap;html=1;" vertex="1" parent="UYW1IYDeI8D_VyTJdm85-3">
          <mxGeometry x="60" y="150" width="120" height="40" as="geometry" />
        </mxCell>
        <mxCell id="UYW1IYDeI8D_VyTJdm85-10" value="Delete Project" style="rounded=1;whiteSpace=wrap;html=1;" vertex="1" parent="UYW1IYDeI8D_VyTJdm85-3">
          <mxGeometry x="60" y="270" width="120" height="40" as="geometry" />
        </mxCell>
        <mxCell id="UYW1IYDeI8D_VyTJdm85-15" value="View Project" style="rounded=1;whiteSpace=wrap;html=1;" vertex="1" parent="UYW1IYDeI8D_VyTJdm85-3">
          <mxGeometry x="60" y="90" width="120" height="40" as="geometry" />
        </mxCell>
        <mxCell id="UYW1IYDeI8D_VyTJdm85-4" value="MANAGER" style="swimlane;" vertex="1" parent="WIyWlLk6GJQsqaUBKTNV-1">
          <mxGeometry x="210" y="40" width="200" height="400" as="geometry" />
        </mxCell>
        <mxCell id="UYW1IYDeI8D_VyTJdm85-11" value="Edit Project" style="rounded=1;whiteSpace=wrap;html=1;" vertex="1" parent="UYW1IYDeI8D_VyTJdm85-4">
          <mxGeometry x="60" y="150" width="120" height="40" as="geometry" />
        </mxCell>
        <mxCell id="UYW1IYDeI8D_VyTJdm85-12" value="Assign Users" style="rounded=1;whiteSpace=wrap;html=1;" vertex="1" parent="UYW1IYDeI8D_VyTJdm85-4">
          <mxGeometry x="60" y="210" width="120" height="40" as="geometry" />
        </mxCell>
        <mxCell id="UYW1IYDeI8D_VyTJdm85-16" value="View Project" style="rounded=1;whiteSpace=wrap;html=1;" vertex="1" parent="UYW1IYDeI8D_VyTJdm85-4">
          <mxGeometry x="60" y="90" width="120" height="40" as="geometry" />
        </mxCell>
        <mxCell id="UYW1IYDeI8D_VyTJdm85-5" value="CONTRIBUTOR" style="swimlane;" vertex="1" parent="WIyWlLk6GJQsqaUBKTNV-1">
          <mxGeometry x="410" y="40" width="200" height="400" as="geometry" />
        </mxCell>
        <mxCell id="UYW1IYDeI8D_VyTJdm85-13" value="Edit Project" style="rounded=1;whiteSpace=wrap;html=1;" vertex="1" parent="UYW1IYDeI8D_VyTJdm85-5">
          <mxGeometry x="40" y="150" width="120" height="40" as="geometry" />
        </mxCell>
        <mxCell id="UYW1IYDeI8D_VyTJdm85-17" value="View Project" style="rounded=1;whiteSpace=wrap;html=1;" vertex="1" parent="UYW1IYDeI8D_VyTJdm85-5">
          <mxGeometry x="40" y="90" width="120" height="40" as="geometry" />
        </mxCell>
        <mxCell id="UYW1IYDeI8D_VyTJdm85-6" value="READER" style="swimlane;" vertex="1" parent="WIyWlLk6GJQsqaUBKTNV-1">
          <mxGeometry x="610" y="40" width="200" height="400" as="geometry" />
        </mxCell>
        <mxCell id="UYW1IYDeI8D_VyTJdm85-18" value="View Project" style="rounded=1;whiteSpace=wrap;html=1;" vertex="1" parent="UYW1IYDeI8D_VyTJdm85-6">
          <mxGeometry x="40" y="90" width="120" height="40" as="geometry" />
        </mxCell>
        <mxCell id="UYW1IYDeI8D_VyTJdm85-19" value="CUSTOM ROLE" style="swimlane;horizontal=0;" vertex="1" parent="WIyWlLk6GJQsqaUBKTNV-1">
          <mxGeometry x="10" y="440" width="800" height="160" as="geometry" />
        </mxCell>
        <mxCell id="UYW1IYDeI8D_VyTJdm85-20" value="Assign Users" style="rounded=1;whiteSpace=wrap;html=1;" vertex="1" parent="UYW1IYDeI8D_VyTJdm85-19">
          <mxGeometry x="440" y="40" width="120" height="40" as="geometry" />
        </mxCell>
        <mxCell id="UYW1IYDeI8D_VyTJdm85-21" value="Edit Project" style="rounded=1;whiteSpace=wrap;html=1;" vertex="1" parent="UYW1IYDeI8D_VyTJdm85-19">
          <mxGeometry x="240" y="40" width="120" height="40" as="geometry" />
        </mxCell>
        <mxCell id="UYW1IYDeI8D_VyTJdm85-22" value="Delete Project" style="rounded=1;whiteSpace=wrap;html=1;" vertex="1" parent="UYW1IYDeI8D_VyTJdm85-19">
          <mxGeometry x="640" y="40" width="120" height="40" as="geometry" />
        </mxCell>
        <mxCell id="UYW1IYDeI8D_VyTJdm85-23" value="View Project" style="rounded=1;whiteSpace=wrap;html=1;" vertex="1" parent="UYW1IYDeI8D_VyTJdm85-19">
          <mxGeometry x="60" y="40" width="120" height="40" as="geometry" />
        </mxCell>
        <mxCell id="UYW1IYDeI8D_VyTJdm85-24" value="[Future Permission]" style="rounded=1;whiteSpace=wrap;html=1;" vertex="1" parent="UYW1IYDeI8D_VyTJdm85-19">
          <mxGeometry x="60" y="100" width="120" height="40" as="geometry" />
        </mxCell>
      </root>
    </mxGraphModel>
  </diagram>
</mxfile>
